<svg width="90" height="90" viewBox="0 0 90 90" fill="none" xmlns="http://www.w3.org/2000/svg">
<rect width="90" height="90" rx="16" fill="#29434E"/>
<path d="M44.5943 78.152C40.6263 78.152 36.5303 77.416 32.3063 75.944C28.0823 74.472 24.3063 72.232 20.9783 69.224L30.3863 57.896C32.5623 59.688 34.9623 61.16 37.5863 62.312C40.2103 63.4 42.6743 63.944 44.9783 63.944C49.7143 63.944 52.0823 62.472 52.0823 59.528C52.0823 58.056 51.3143 56.968 49.7783 56.264C48.3063 55.496 46.2583 54.568 43.6343 53.48L35.8583 50.216C32.4663 48.872 29.5223 46.76 27.0263 43.88C24.5303 41 23.2823 37.32 23.2823 32.84C23.2823 27.528 25.4583 22.984 29.8103 19.208C34.1623 15.368 39.7303 13.448 46.5143 13.448C50.0983 13.448 53.7143 14.152 57.3623 15.56C61.0743 16.904 64.3703 18.984 67.2502 21.8L58.9943 32.168C56.8823 30.696 54.8343 29.576 52.8503 28.808C50.9303 28.04 48.8183 27.656 46.5143 27.656C42.1623 27.656 39.9863 29.064 39.9863 31.88C39.9863 33.352 40.8183 34.504 42.4823 35.336C44.1463 36.104 46.3863 37.032 49.2023 38.12L56.7863 41.096C60.6903 42.632 63.6983 44.776 65.8103 47.528C67.9223 50.28 68.9783 53.832 68.9783 58.184C68.9783 63.432 66.8663 68.072 62.6423 72.104C58.4183 76.136 52.4023 78.152 44.5943 78.152Z" fill="white"/>
</svg>
