<svg viewBox="0 0 232 90" fill="none" xmlns="http://www.w3.org/2000/svg">
<path d="M18.43 75.504C21.054 75.504 23.582 74.864 26.014 73.584C28.51 72.304 31.198 70.448 34.078 68.016V52.368C24.606 53.456 17.982 55.152 14.206 57.456C10.494 59.696 8.638 62.64 8.638 66.288C8.638 69.616 9.598 71.984 11.518 73.392C13.502 74.8 15.806 75.504 18.43 75.504ZM17.662 79.152C14.014 79.152 10.878 78.128 8.254 76.08C5.63 74.032 4.318 70.832 4.318 66.48C4.318 61.36 6.718 57.488 11.518 54.864C16.318 52.176 23.838 50.256 34.078 49.104C34.142 45.584 33.47 42.288 32.062 39.216C30.654 36.08 27.678 34.512 23.134 34.512C20.062 34.512 17.246 35.12 14.686 36.336C12.126 37.552 10.046 38.736 8.446 39.888L6.526 36.72C8.126 35.568 10.462 34.288 13.534 32.88C16.606 31.472 19.998 30.768 23.71 30.768C29.15 30.768 32.926 32.496 35.038 35.952C37.214 39.408 38.302 43.6 38.302 48.528V78H34.654L34.27 72.048H33.982C31.614 73.904 29.054 75.568 26.302 77.04C23.55 78.448 20.67 79.152 17.662 79.152ZM54.7383 78V31.92H58.3863L58.7703 39.024H59.0583C61.1063 36.656 63.3783 34.704 65.8743 33.168C68.4343 31.568 70.9943 30.768 73.5543 30.768C77.2663 30.768 80.1143 31.632 82.0983 33.36C84.0823 35.088 85.4903 37.36 86.3223 40.176C88.9463 37.296 91.5383 35.024 94.0983 33.36C96.7223 31.632 99.3463 30.768 101.97 30.768C111.186 30.768 115.794 36.656 115.794 48.432V78H111.474V49.008C111.474 39.408 108.05 34.608 101.202 34.608C97.1063 34.608 92.4983 37.488 87.3783 43.248V78H83.1543V49.008C83.1543 39.408 79.6983 34.608 72.7863 34.608C68.6903 34.608 64.0823 37.488 58.9623 43.248V78H54.7383ZM132.645 78V31.92H136.293L136.677 40.464H136.965C138.501 37.648 140.357 35.344 142.533 33.552C144.773 31.696 147.269 30.768 150.021 30.768C151.813 30.768 153.349 31.088 154.629 31.728L153.669 35.568C152.325 35.056 150.917 34.8 149.445 34.8C147.397 34.8 145.221 35.696 142.917 37.488C140.677 39.28 138.661 42.32 136.869 46.608V78H132.645ZM171.899 75.504C174.523 75.504 177.051 74.864 179.483 73.584C181.979 72.304 184.667 70.448 187.547 68.016V52.368C178.075 53.456 171.451 55.152 167.675 57.456C163.963 59.696 162.107 62.64 162.107 66.288C162.107 69.616 163.067 71.984 164.987 73.392C166.971 74.8 169.275 75.504 171.899 75.504ZM171.131 79.152C167.483 79.152 164.347 78.128 161.723 76.08C159.099 74.032 157.787 70.832 157.787 66.48C157.787 61.36 160.187 57.488 164.987 54.864C169.787 52.176 177.307 50.256 187.547 49.104C187.611 45.584 186.939 42.288 185.531 39.216C184.123 36.08 181.147 34.512 176.603 34.512C173.531 34.512 170.715 35.12 168.155 36.336C165.595 37.552 163.515 38.736 161.915 39.888L159.995 36.72C161.595 35.568 163.931 34.288 167.003 32.88C170.075 31.472 173.467 30.768 177.179 30.768C182.619 30.768 186.395 32.496 188.507 35.952C190.683 39.408 191.771 43.6 191.771 48.528V78H188.123L187.739 72.048H187.451C185.083 73.904 182.523 75.568 179.771 77.04C177.019 78.448 174.139 79.152 171.131 79.152ZM219.752 79.152C215.272 79.152 212.232 77.872 210.632 75.312C209.032 72.752 208.232 69.392 208.232 65.232V35.568H201.032V32.304L208.328 31.92L208.904 18.576H212.552V31.92H225.896V35.568H212.552V65.616C212.552 68.56 213.064 70.928 214.088 72.72C215.112 74.512 217.192 75.408 220.328 75.408C222.12 75.408 224.04 74.928 226.088 73.968L227.24 77.424C225.896 77.936 224.552 78.352 223.208 78.672C221.864 78.992 220.712 79.152 219.752 79.152Z" fill="#29434E"/>
</svg>
